<svg xmlns="http://www.w3.org/2000/svg" width="962.09" height="830.429" viewBox="0 0 962.09 830.429"><defs><style>.a,.e,.u{fill:#3d6dfe;}.a{opacity:0.49;}.b,.d{opacity:0.3;}.c,.f{fill:#a0b7ff;}.d{fill:#a8bcff;}.e{opacity:0.44;}.f{opacity:0.22;}.g{fill:#bfd4f8;}.h{fill:#fa9a95;}.i{fill:#fff;}.j{fill:#fa7071;}.k{fill:#2a2b7c;}.l{fill:#7ab6f6;}.m{fill:#19be72;}.n{fill:#364e57;}.o{fill:#c4846e;}.p{fill:#ff8b95;}.q{fill:#ecb49f;}.r{fill:#3d4166;}.s{fill:#325bd8;}.t{fill:#f5b29c;}.v{fill:#5c61c3;}.w{fill:#0b1238;}.x{fill:#2e3054;}.y{fill:#f5a88b;}.z{fill:#b9b3c0;}.aa{fill:#5c75c3;}.ab{fill:#ad704d;}.ac{fill:#ff98a6;}.ad{fill:#2d3152;}.ae{fill:#5b8cee;}.af{fill:#848fb2;}.ag{fill:#f1a09d;}.ah{fill:#b7cae4;}.ai{fill:#b0bcd8;}.aj{fill:#8ca7f6;}.ak{fill:#97e2bf;}.al{fill:#cbcfff;opacity:0.6;}</style></defs><g transform="translate(-182.348 -53.477)"><path class="a" d="M1144.438,625.312v-464.2c-29.017-.119-94.672,79.088-118.626,95.849-44.614,31.215-93.393,44.934-145.564,57.772-32.811,8.067-206.578,47.823-202.032,77.653-59.684,12.681-114.475,21.48-175.544,24.41-51.8,2.484-100.12,12.613-144.526,40.844-30.824,19.592-141.365,101.4-175.8,167.673Z" transform="translate(0 258.594)"/><g class="b" transform="translate(676.239 227.813)"><path class="c" d="M708.885,295.426c0,105.319-85.373,190.671-190.671,190.671S327.5,400.745,327.5,295.426s85.4-190.712,190.712-190.712S708.885,190.114,708.885,295.426Z" transform="translate(-327.502 -104.714)"/></g><g class="b" transform="translate(514.619 302.103)"><g transform="translate(0 0)"><path class="c" d="M495.8,234.456A107.9,107.9,0,1,1,387.913,126.548,107.883,107.883,0,0,1,495.8,234.456Z" transform="translate(-280.002 -126.548)"/></g></g><path class="d" d="M388.295,267.978c0,3.314-19.6,6.012-43.767,6.012s-43.784-2.7-43.784-6.012c0-3.331,19.612-6.029,43.784-6.029S388.295,264.647,388.295,267.978Z" transform="translate(284.45 500.861)"/><path class="d" d="M304.616,253.921c0,2.559-15.121,4.638-33.763,4.638s-33.78-2.079-33.78-4.638,15.131-4.651,33.78-4.651S304.616,251.349,304.616,253.921Z" transform="translate(131.476 470.399)"/><path class="e" d="M355.8,287.413c0,3.543-36.371,6.417-81.243,6.417s-81.269-2.874-81.269-6.417,36.4-6.427,81.269-6.427S355.8,283.863,355.8,287.413Z" transform="translate(40.368 541.614)"/><path class="f" d="M588.152,330.422A171.481,171.481,0,1,1,416.671,158.941,171.48,171.48,0,0,1,588.152,330.422Z" transform="translate(150.98 253.381)"/><g transform="translate(432.531 349.055)"><rect class="g" width="39.657" height="51.888" transform="translate(0 14.344) rotate(-21.205)"/><rect class="h" width="4.248" height="15.616" transform="translate(15.993 41.234) rotate(-21.166)"/><rect class="i" width="4.254" height="25.844" transform="translate(19.381 28.956) rotate(-21.217)"/><path class="j" d="M279.782,178.949l-3.971,1.532-13.324-34.363,3.957-1.542Z" transform="translate(-239.994 -130.185)"/><rect class="k" width="4.251" height="27.852" transform="matrix(0.932, -0.363, 0.363, 0.932, 32.828, 21.593)"/></g><g transform="translate(915.649 482.007)"><path class="i" d="M443.15,253.632l-45.286-19.393,23.479-54.818,33.966,14.549L461.838,210Z" transform="translate(-397.864 -179.421)"/><path class="l" d="M413.34,194.878l11.318,4.846L418.128,183.7Z" transform="translate(-360.684 -169.148)"/><g transform="translate(35.603 23.077)"><rect class="l" width="1.824" height="19.814" transform="translate(1.792 1.677) rotate(-66.814)"/><path class="l" d="M426.54,196.914l-18.212-7.8.715-1.676,18.212,7.8Z" transform="translate(-408.328 -183.243)"/></g><rect class="m" width="9.247" height="8.937" transform="matrix(0.394, -0.919, 0.919, 0.394, 20.772, 23.757)"/><path class="i" d="M413.67,185.818l-5.685,2.273-1.359-3.389-1.814.726,1.359,3.391-.013.005.728,1.814,7.513-3.005Z" transform="translate(-381.173 -166.735)"/><g transform="translate(29.726 36.79)"><rect class="l" width="1.826" height="19.814" transform="matrix(0.394, -0.919, 0.919, 0.394, 1.8, 1.678)"/><path class="l" d="M424.816,200.946l-18.216-7.8.724-1.68,18.212,7.8Z" transform="translate(-406.6 -187.273)"/></g><rect class="m" width="9.248" height="8.939" transform="translate(14.896 37.471) rotate(-66.828)"/><path class="i" d="M411.943,189.847l-5.685,2.274-1.356-3.389-1.817.726,1.356,3.389-.01.005.724,1.816,7.513-3.005Z" transform="translate(-385.321 -157.051)"/><g transform="translate(23.856 50.504)"><path class="l" d="M423.619,203.743l-18.215-7.8.715-1.676,18.215,7.8Z" transform="translate(-403.607 -194.265)"/><rect class="l" width="1.823" height="19.814" transform="translate(0 5.869) rotate(-66.815)"/></g><rect class="g" width="9.244" height="8.936" transform="translate(9.023 51.18) rotate(-66.802)"/><path class="n" d="M413.34,194.878l11.318,4.846L418.128,183.7Z" transform="translate(-360.684 -169.148)"/></g><g transform="translate(946.403 229.629)"><g transform="translate(0 6.333)"><path class="m" d="M423.906,141.117a16.7,16.7,0,0,1-3.773-.432,17,17,0,1,1,7.554-33.147,1.279,1.279,0,0,1-.565,2.494,14.42,14.42,0,1,0,10.735,10.316,1.279,1.279,0,0,1,2.47-.667,17.03,17.03,0,0,1-16.421,21.436Z" transform="translate(-406.903 -107.109)"/></g><g transform="translate(6.258)"><path class="m" d="M419.293,132.247a1.257,1.257,0,0,1-.857-.33l-9.272-8.387a1.277,1.277,0,1,1,1.711-1.9l8.319,7.523,21.038-23.484a1.277,1.277,0,1,1,1.905,1.7l-21.892,24.451a1.3,1.3,0,0,1-.891.422Z" transform="translate(-408.742 -105.248)"/></g></g><path class="o" d="M252.347,216.007c-.412,2.028-2.984,3.559-3.613,5.607-.929,3.021-2.389,6.761-2.855,9.874-1.922-1.307-1.956-2.8-3.943-4.073-2.678-1.722-2.739-1.97-2-5.06.371-1.514.759-3.1,1.045-4.648.1-.5-2.072-3.083-1.718-6.587s2.086,4.131,2.256,2.838c.531-4.039,1.6-12.065,1.871-12.583.361-.677.378,8.673,1.987,9.211.844-1.6.742-11.453,1.572-10.568s1.33,9.718,1.412,11.786c.167-1.126,1.215-10.606,2.12-9.466s.35,9.895.075,11.235c.167-.459,2.661-7.822,2.817-7.3S252.568,214.9,252.347,216.007Z" transform="translate(136.633 351.936)"/><path class="p" d="M224.494,245.351c-3.63,5.883-3.464,12.538,7.285,13.263,10.749.7,31.562-4.937,35.407-6.615,13.039-5.475,22.147-43.236,22.147-43.236l-8.142-3.151s-4.794,28.911-17.537,35.342S228.672,238.587,224.494,245.351Z" transform="translate(96.144 365.512)"/><path class="q" d="M315.52,141.85c.67-.572.3-1.7.708-2.133,2.4-2.433,5.961-4.447,8.244-7.019,3.675-4.134,7.765-8.51,11.807-12.253a44.2,44.2,0,0,0,7.659-9.326c1.031-1.63,2.542-6.111,4.267-6.734.793.953-1.991,6.7,1.484,3.362,2.644-2.535,7.455-7.135,8.564-6.608s-3.682,4.243-3.226,5.213,6.295-4.127,6.87-3.338-5.2,4.709-4.709,5.526c.83,1.4,4.192-2.6,4.975-1.769s-3.018,2.947-3.964,4.665c1.586.881,4.553-2.606,4.525-.664s-6.655,3.617-8.748,5.005c-3.835,2.538-8.006,5.056-10.3,9.041-3.743,6.536-11.181,11.613-16.25,17.173-3.712,4.073-12.379,6.7-16.308,10.31-2.038-.84-.01-2.007-.347-4.345C310.522,146.171,313.377,143.718,315.52,141.85Z" transform="translate(307.167 114.408)"/><path class="r" d="M371.492,113.467l-5.672-8.152-30.068,22.219s-41.535.793-35.713,17.853c4.631,13.58,43.675-2.385,43.675-2.385Z" transform="translate(281.413 124.543)"/><path class="s" d="M533.123,209.851a76.4,76.4,0,0,0-4.243-27.765,28.555,28.555,0,0,1-31.9-39.925,76.966,76.966,0,0,0-26.06-10.3,28.548,28.548,0,0,1-50.317,7.285,76.9,76.9,0,0,0-22.069,17.281,28.557,28.557,0,0,1-19.251,47.336,76.983,76.983,0,0,0,3.811,27.816,28.559,28.559,0,0,1,31.7,40.728,76.64,76.64,0,0,0,26.108,10.582,28.555,28.555,0,0,1,51.348-7.435A76.623,76.623,0,0,0,514.29,257.9a28.562,28.562,0,0,1,18.833-48.051ZM464.45,231.637a25.617,25.617,0,1,1,15.972-32.525A25.624,25.624,0,0,1,464.45,231.637Z" transform="translate(472.948 188.33)"/><path class="s" d="M383.629,261.043a20.587,20.587,0,0,1,8.135-20.351,56.41,56.41,0,0,0-5.614-7.931,55.734,55.734,0,0,0-7.615-7.4A20.588,20.588,0,0,1,343.758,213.2a55.71,55.71,0,0,0-19.874,3.688,20.577,20.577,0,0,1-27.938,23.733,55.617,55.617,0,0,0-6.863,19.017,20.591,20.591,0,0,1,6.383,36.291,55.721,55.721,0,0,0,6.067,8.7,54.906,54.906,0,0,0,6.911,6.819,20.6,20.6,0,0,1,34.978,12.739,55.228,55.228,0,0,0,20-3.542,20.595,20.595,0,0,1,28.517-24.216,55.376,55.376,0,0,0,6.733-19.166A20.57,20.57,0,0,1,383.629,261.043Zm-23.161,21.113a21.363,21.363,0,1,1-3.127-30.044A21.366,21.366,0,0,1,360.468,282.156Z" transform="translate(256.434 383.733)"/><path class="t" d="M361.887,210.335c-.391.391,6.271,9,7.394,10.681a58.847,58.847,0,0,1,4.022,7.833c1.385-1.712,2.94-3.28,4.389-4.981,1.95-2.283,1.933-2.531.419-5.124-.538-.915-1.1-1.865-1.63-2.821-.432-.783,2.953-7.928.616-7.928s-2.256,4.451-2.817,3.038c-1.419-3.542-3.933-9.53-4.859-9.588-1.3-.078,1.868,7.234.565,8.159-1.2-1.211-3.426-7.387-4.981-6.642s2.123,6.669,2.617,8.561c-.459-.98-4.175-6.649-4.563-5.866s2.45,6.924,3.062,8.067c-.272-.378-.892-.789-1.218-1.221C365.18,212.877,362.275,209.944,361.887,210.335Z" transform="translate(431.308 355.495)"/><path class="k" d="M434.55,229.945c5.1,4.709,6.86,11.3-3.042,15.185s-31.552,10.065-48.217-5.4-20.157-26.6-20.157-26.6l6.744-5.5s11.511,18.86,29.337,24.161S428.684,224.535,434.55,229.945Z" transform="translate(434.344 370.343)"/><g transform="translate(579.441 335.329)"><path class="u" d="M581.378,286.426a32.486,32.486,0,0,1,17.9-29.01,151.463,151.463,0,0,0-5.6-20.932,32.451,32.451,0,0,1-29.034-50.208,153.127,153.127,0,0,0-15.335-15.332,32.45,32.45,0,0,1-50.2-29.03,151.98,151.98,0,0,0-20.936-5.6,32.452,32.452,0,0,1-58.01,0,151.939,151.939,0,0,0-20.932,5.6,32.458,32.458,0,0,1-50.211,29.034,154.473,154.473,0,0,0-15.328,15.328,32.454,32.454,0,0,1-29.03,50.211,152.228,152.228,0,0,0-5.6,20.929,32.452,32.452,0,0,1,0,58.013,152.713,152.713,0,0,0,5.6,20.929,32.455,32.455,0,0,1,29.034,50.215A153.737,153.737,0,0,0,349.016,401.9a32.459,32.459,0,0,1,50.218,29.034,151.727,151.727,0,0,0,20.926,5.6,32.452,32.452,0,0,1,58.01,0,150.923,150.923,0,0,0,20.936-5.611A32.453,32.453,0,0,1,549.313,401.9a153.109,153.109,0,0,0,15.332-15.335,32.452,32.452,0,0,1,29.034-50.208,152.389,152.389,0,0,0,5.6-20.929A32.49,32.49,0,0,1,581.378,286.426ZM449.169,365.46A79.034,79.034,0,1,1,528.2,286.426,79.124,79.124,0,0,1,449.169,365.46Z" transform="translate(-299.053 -136.313)"/><path class="u" d="M394.014,159.268a72.006,72.006,0,1,0,72.008,72.008A72.083,72.083,0,0,0,394.014,159.268Zm0,122.974a50.967,50.967,0,1,1,50.967-50.967A50.97,50.97,0,0,1,394.014,282.242Z" transform="translate(-243.898 -81.163)"/></g><path class="s" d="M439.584,309.288a24.145,24.145,0,0,1,19.187-16.543,112.057,112.057,0,0,0,.732-16.087,24.12,24.12,0,0,1-9.306-42.089,115.04,115.04,0,0,0-7.421-14.3,24.114,24.114,0,0,1-29.061-31.834,113.694,113.694,0,0,0-13.576-8.67,24.118,24.118,0,0,1-41.106-13.015,113.108,113.108,0,0,0-16.087-.725,24.121,24.121,0,0,1-42.089,9.3,115.009,115.009,0,0,0-14.3,7.421,24.121,24.121,0,0,1-31.841,29.064,112.906,112.906,0,0,0-8.663,13.573,24.122,24.122,0,0,1-13.018,41.106,114.071,114.071,0,0,0-.732,16.084,24.121,24.121,0,0,1,9.309,42.1,113.809,113.809,0,0,0,7.424,14.294A24.125,24.125,0,0,1,278.1,370.809a113.554,113.554,0,0,0,13.576,8.666,24.118,24.118,0,0,1,41.1,13.015,113.647,113.647,0,0,0,16.091.728,24.119,24.119,0,0,1,42.086-9.309,113.614,113.614,0,0,0,14.3-7.421A24.124,24.124,0,0,1,437.1,347.427a114.028,114.028,0,0,0,8.663-13.573A24.139,24.139,0,0,1,439.584,309.288ZM329.09,332.724A55.7,55.7,0,1,1,399,296.433,55.7,55.7,0,0,1,329.09,332.724Z" transform="translate(119.928 270.299)"/><path class="q" d="M280.1,148.353c-.6-1.3,5.516-9.6,6.5-11.382,1.456-2.637,4.219-5,5.264-7.812,1.538,1.6,1.341,2.627,2.943,4.209,2.157,2.13,2.164,2.378.871,5.117-.459.966-.439,1.426-.544,3.4s1.878,5.563.463,7.278-2.657-4.063-3.1-2.593c-1.109,3.685-3.11,9.925-4.046,10.061-1.29.191,1.252-7.431-.139-8.248-1.1,1.32-2.821,8.326-4.427,8.387s1.552-8.169,1.878-10.112c-.374,1.028-4.025,7.309-5.138,7.145s2.923-8.027,3.44-9.228c-.242.4-.827.868-1.116,1.337C283.188,145.512,280.694,149.659,280.1,148.353Z" transform="translate(234.752 181.829)"/><g transform="translate(501.608 208.414)"><path class="v" d="M278.019,172.166l-1.841,9.7,20,4.4s.354-4.587-6.9-7.754.242-13.961.242-13.961Z" transform="translate(-276.178 58.445)"/><path class="q" d="M313.726,99.5s6.921-1.273,10.323,9.782c3.678,5.206,5.662,3.927,6.142,5.437s-2.157,2.967-1.793,4.168,2.668,6.917-.051,8.391a87.12,87.12,0,0,1-8.738,3.63s-1.555,6.941.282,9.544c.871,1.235-2,11.865,1.089,16.21,3.416,4.815-18.918-16.159-18.918-16.159s8.741-3.1,3.069-8.36S284.689,101.36,313.726,99.5Z" transform="translate(-227.795 -97.943)"/><path class="g" d="M320.268,110.436c2.695-1.031,9.265,12.093,11.171,7.935,16.618,28.346-6.193,42.045-7.516,48.714s-.323,16.754,2.933,23.386c0,0-9.459-2.089-14.764-.49s-24.178-12.011-20.64-18.636a118.441,118.441,0,0,0,6.475-16.662c2.531-8.625,3.647-16.233,5.723-24.757S314.007,112.838,320.268,110.436Z" transform="translate(-240.536 -71.707)"/><g transform="translate(94.206 8.461)"><path class="w" d="M308.023,111.179c-1.1.371-2.664-1.463-3.569-4.165-.827-2.47-.776-4.723.109-5.345a.845.845,0,0,1,.248-.123c1.089-.367,2.654,1.46,3.556,4.165.83,2.474.783,4.716-.1,5.342A.914.914,0,0,1,308.023,111.179Zm-3.192-4.291c.878,2.617,2.321,4.161,3.062,3.913s.99-2.29.1-4.968c-.892-2.654-2.293-4.168-3.056-3.913a.423.423,0,0,0-.146.075C304.154,102.441,304,104.394,304.831,106.888Z" transform="translate(-303.865 -101.499)"/></g><g transform="translate(81.846 13.983)"><path class="w" d="M314.015,103.509l-.1-.387-13.683,3.311.1.391Z" transform="translate(-300.232 -103.122)"/></g><path class="r" d="M324.627,131.677s-16.8,12.712-19.551,29.2-2.079,20.412-10.551,39.4-17.805,50.875-17.805,50.875l7.962,2.1s19.133-22.851,33.083-51.011c12.355-24.937,32.9-64.083,32.9-64.083Z" transform="translate(-274.878 -20.535)"/><path class="v" d="M302.716,157.007l-3.736,14.209,9.993,7.924,14.474,2.831s-1.313-3.858-7.407-6.655c-6.077-2.8-6.087-7.751-6.087-7.751l-.231-5.012Z" transform="translate(-221.395 40.321)"/><path class="r" d="M316.916,132.838S362.548,156.275,365,167.221l-35.117,56.931-9.425-3.314s6.577-33.345,23.182-48.176l-52.168-17.469S284.058,133.3,316.916,132.838Z" transform="translate(-241.155 -17.746)"/><path class="j" d="M302.747,113.82l3.525,5.812.9-.078s1.392-5.206-3.549-6.88Z" transform="translate(-212.345 -66.193)"/><path class="j" d="M316.1,114.832s7.326,8.255,1.572,20.7-11.32,16.55-8.547,21.865l-3.426,3.641-6.649-6.553s-.663-5.6,6.632-10.745,12.95-23.44,9.214-29.105Z" transform="translate(-221.27 -61.472)"/><path class="g" d="M301.7,110.127c-1.174-1.691,5.737,4.757,12.184,4.736l.228,7.673L298.8,114.945Z" transform="translate(-221.83 -72.99)"/><path class="w" d="M323.456,105.081c-.289,1.984-2.212,3.158-4.073,3.671-3.512.973-7.03,2.082-7.4,6.264-.065.82.487,6.393,1.1,6.448-2.307-.194-4.818-1.844-4.253,1.654a4.059,4.059,0,0,0,1.136,2.4c1.688,1.558-5.985,7.053-7.938,4.066-3.6-5.516-8.163-14.454-4.92-20.633,2.572-4.889,7.839-8.384,13.147-9.6,3.637-.834,12.851-.453,13.219,4.951A3.447,3.447,0,0,1,323.456,105.081Z" transform="translate(-228.539 -99.013)"/><path class="x" d="M338.043,119.644s5.934,17.1-6.635,29.357,3.9,41.511-.609,45.118-41.817,4.212-43.022.3,7.1-23.481,10.378-39.765,15.937-44.628,27.884-44.1C334.12,110.9,337.767,118.681,338.043,119.644Z" transform="translate(-248.594 -71.313)"/><path class="r" d="M282.4,172.205l8.459,5.988,21.623-32.467s40.463-15.512,28.707-30.187c-9.364-11.674-42.018,17.836-42.018,17.836Z" transform="translate(-261.22 -65.871)"/></g><path class="d" d="M499.927,286.007c0,3.47-31.412,6.291-70.164,6.291s-70.157-2.821-70.157-6.291,31.416-6.3,70.157-6.3S499.927,282.53,499.927,286.007Z" transform="translate(425.871 543.53)"/><g transform="translate(800.228 556.734)"><path class="y" d="M403.569,277.577l4.9,95.846s-18.952,4.675-22.392,5.342,9.68-7.686,11.245-11.746,3.906-5.536,1.871-15.4S381.2,242.834,381.2,242.834h20.068Z" transform="translate(-322.477 -101.798)"/><path class="x" d="M391.816,280.748c7.036,2.266,11.242.82,13.416-.67l.2,3.865s-18.952,4.675-22.392,5.342C380.356,289.8,387.675,284.876,391.816,280.748Z" transform="translate(-319.444 -12.318)"/><path class="y" d="M407.732,282.861l-14.845,94.7s-19.459.235-22.96.1,11.024-5.287,13.386-8.891,4.947-4.515,4.981-14.621-.143-109.32-.143-109.32l25.3-3.226Z" transform="translate(-350.868 -104.775)"/><path class="x" d="M380.243,279.723c6.4,3.821,10.8,3.365,13.239,2.413l-.6,3.818s-19.459.235-22.96.1C367.2,285.939,375.357,282.809,380.243,279.723Z" transform="translate(-350.869 -13.171)"/><path class="x" d="M405.816,237.541c-1.609,6.427,1.9,11.2,3.28,17.343,1.3,5.74,1.3,12.3.909,18.091-.868,12.987-4.032,25.226-7.986,37.22-3.971,12.031-12.263,71.164-12.263,71.164s-10.579-2.048-14.192-1.038c.806-13.4-2.45-66.717-2.651-80.456-.173-11.807,1.674-24.032,2.542-35.89.827-11.419,2.627-22.048,10.994-29.83Z" transform="translate(-342.416 -122.673)"/><path class="r" d="M406.42,234.678c-.269,6.645,5.274,8.432,7.884,14.11,2.44,5.318,2.65,13.78,3.454,19.531,1.817,12.875,1.235,25.546-.17,38.156-1.409,12.661-.316,61.759.034,73.42-3.841.97-8.18-.721-11.494,1.092-1.967-13.267-10.653-56.989-13.671-70.358-2.583-11.49-10.793-33.743-12.378-45.512-1.528-11.344-4.4-18.7,2.171-28.207Z" transform="translate(-329.88 -121.393)"/><path class="i" d="M409.057,233.047c.044.177.092.347.139.521a42.362,42.362,0,0,1-15.362.793,31.29,31.29,0,0,1-14.746-5.944l.231-.507C390.929,236.8,405.532,233.928,409.057,233.047Z" transform="translate(-327.553 -137.656)"/><path class="k" d="M387.862,237.671l-15.737,48.911s4.679,14.886,27.22,13.61,35.727-2.127,35.727-2.127-4.253-34.451,3.828-50.187,6.805-25.094,3.4-29.772S398.495,222.784,387.862,237.671Z" transform="translate(-344.282 -164.12)"/><path class="y" d="M381.927,224.386c-.65,3.314,5.893,10.789,8.547,12.314,4.77,2.742,11.633,1.562,16.536-.191,2.657-.949,8.469-.687,9.537-3.542,1.725-4.627-5.757-6.074-8.061-7.543-3.413-2.188-4.6-8.724-4.052-12.368a107.436,107.436,0,0,0-10.619-1.8,12.949,12.949,0,0,1-6.86,10.044C385.755,221.967,382.206,222.984,381.927,224.386Z" transform="translate(-320.841 -177.658)"/><path class="i" d="M392.86,214.526l4.253-1.276,1.276,5.529,12.76-2.977,2.871,4.529-34.77,53.314,12.334-55.291Z" transform="translate(-327.164 -172.874)"/><path class="k" d="M423.7,220.639a6.964,6.964,0,0,0,1.674-2.368c.3-.8,10.949,4.338,11.841,5.111.385.337.735.657,1.048.966,3.307,3.3,2.535,5.356,1.552,9.99-2.5,11.8-9.952,21.8-13.464,33.253-1.953,6.37-5.09,12.5-4.7,19.343.361,6.223,3.345,10.5-3.927,13.508-7.931,3.287-31.657-1.916-38.782-6.308-4.978-3.069-3.91-5.808-4.26-11.609-.892-15.087,2.042-28,8.01-41.906,3-6.992,5.893-15.747,10.208-22.008,2.076-3.021,1.609-3.481,5.342-4.481a43.451,43.451,0,0,1,6.386.33c-.007.184-8.5,40.963-8.5,40.963s20.854-29.837,23.583-31.409A45.325,45.325,0,0,0,423.7,220.639Z" transform="translate(-338.514 -170.814)"/><path class="z" d="M384.777,216.979a11.992,11.992,0,0,0,2.082-5.72,107.437,107.437,0,0,1,10.619,1.8c-.055.347-.075.732-.1,1.119C393.95,217.853,389.466,218.452,384.777,216.979Z" transform="translate(-313.885 -177.658)"/><path class="y" d="M388.841,233.364c-10.214-5.914-4.978-18.792,1.735-25.233,3.477-3.331,8.894-6.842,13.927-5.628,4.906,1.2,12.821,5.662,12.113,11.5-.364,2.97-3.267,5.24-4.655,7.836-2.042,3.818-3.688,7.622-6.958,10.6C400.107,236.892,394.333,236.545,388.841,233.364Z" transform="translate(-317.902 -199.286)"/><path class="w" d="M401.572,229.265c2.409,1.079,4.188-.823,4.2-3.2.037-4.379-2.695-2.317-4.872-3.1h0l.817-5.342s-9.282-1.671-6.227-5.294c-3.113-.344-11.252-.912-11.075-5.577.326-8.663,15.025-4.665,19.112-2.831,4.015,1.807,8.673,5.56,10.17,9.8,2.637,7.472-5.614,23.719-14.9,21.558Z" transform="translate(-314.766 -201.384)"/><path class="y" d="M365.086,214.985c-.48.48,7.758,11.133,9.153,13.215,2.055,3.066,5.679,5.662,7.254,8.979,1.708-2.116,1.358-3.348,3.151-5.451,2.409-2.827,2.389-3.13.521-6.342-.667-1.133-1.364-2.3-2.018-3.488-.538-.97,3.654-9.81.759-9.81s-2.79,5.5-3.488,3.756c-1.752-4.382-4.862-11.793-6.009-11.861-1.6-.1,2.31,8.949.7,10.1-1.48-1.5-4.239-9.136-6.165-8.217s2.627,8.251,3.239,10.589c-.572-1.211-5.165-8.224-5.648-7.258s3.035,8.568,3.791,9.983c-.337-.463-1.1-.973-1.5-1.507C369.162,218.129,365.573,214.5,365.086,214.985Z" transform="translate(-361.241 -195.137)"/><path class="v" d="M448.031,234.471c5.56,5.138,7.479,12.327-3.317,16.56s-34.41,10.98-52.59-5.883-23.957-26.383-23.957-26.383l9.333-8.636s12.552,20.572,31.994,26.349S441.634,228.571,448.031,234.471Z" transform="translate(-353.791 -180.373)"/><path class="x" d="M363.942,248.557h0Z" transform="translate(-363.942 -88.048)"/></g><path class="aa" d="M342.171,134.6c-.3,4.923-8.353,6.979-10.854,10.8,2.6,1.028,11.674.572,14.2-1.116,3.481-2.338.885-8.207,4.913-11.579Z" transform="translate(357.903 190.353)"/><path class="aa" d="M352.014,135.978c.265,3.814-1.092,7.554-.864,11.494,5.978.8,11.007,1.939,17.159,1.626-1.429-3.6-4.593-4.27-7.88-6.427-5.3-3.457-2.773-5.863-4.679-10.82Z" transform="translate(405.488 188.296)"/><path class="r" d="M354.433,93.761,333.623,230.6l12.174.112,26.536-106.479,19.422,108.66,9.513-.66s.732-62.144.364-81.446.728-46.121-7.676-57.571C393.957,93.217,366.107,100.2,354.433,93.761Z" transform="translate(363.443 95.477)"/><path class="ab" d="M367.42,82.536c-.745-.092-1.64-.167-2.7-.32-4.447-.629-6.808-2.29-9.262-5.706-.67-.942-3.787-8.455-4.682-8.489-3.365-.146-8.918-.629-11.021,2.239-2.184,2.96-.708,9.816-1.531,13.335-.452,1.916-2.106,3.433-2.644,5.182-2.1,6.894,6.519,16.679,9.5,22.477,1.946,3.773,4.008,10.813,8.809,12.361C364.422,127,368,103.9,368.9,98.681c.633-3.634,1.916-7.292,1.933-10.98C370.853,83.343,370.016,82.849,367.42,82.536Z" transform="translate(367.367 34.646)"/><path class="q" d="M336.13,84.25c.075-.422.174-.715.242-1.024.688-3.467-.711-10.262,1.2-13.164,1.361-2.062,4.4-2.314,7.108-2.225,1.3,1.415,2.831,3.253,3.835,4.393a16.32,16.32,0,0,1-.725,2.018C345.718,79.082,341.026,84.6,336.13,84.25Z" transform="translate(369.466 34.463)"/><path class="ab" d="M357.263,89.641a14.794,14.794,0,0,0,1.429-2.321c2.674-5.509-2.447-16.288-6.043-20.817-4.018-5.066-9-6.094-14.046-4.229-12.188,4.5-5.58,27.806,3.739,33.665C347.161,98.964,353.871,94.231,357.263,89.641Z" transform="translate(359.463 19.055)"/><path class="i" d="M342.829,69.69a8.293,8.293,0,0,1-8.85,2.144S339.927,80.343,342.829,69.69Z" transform="translate(364.299 38.952)"/><path class="x" d="M363.116,87.329c.354-6.965,1.8-11.752.224-17.737-1.742-6.611-9.765-10.619-16.216-9.517-5.359.922-11.279,5.223-14.246,9.895-1.606,2.508-2.6,5.41-1.725,8.438,1.255,4.311,2.692,4.743,5.172,4.627a16.649,16.649,0,0,0,3.9-1.575c.14,7.091,8.037-.075,10.388-.687,5.053-1.31,7.356,4.012,10.81,6.37Z" transform="translate(356.723 15.414)"/><path class="ab" d="M362.85,94.867c3.083,3.733,15.209,14.726,14.835,15.383s-7.053-4.161-8.3-5.049c.755,1.232,5.951,7.04,5.257,7.588s-9.421-7.754-11.9-9.187c-.191.8,2.9,5.522,1.956,5.587-3.042.218-11.763-14.651-5.42-15.856C359.281,93.333,359.771,91.128,362.85,94.867Z" transform="translate(419.664 94.204)"/><path class="ab" d="M334.646,98.518c-2.242,4.828-12.082,19.884-11.5,20.476s6.342-6.387,7.417-7.676c-.456,1.524-4.372,9.139-3.481,9.527s7.87-10.857,10.1-13.066c.422.789-1.552,6.669-.531,6.482,3.3-.619,8.438-18.85,1.364-18.363C338.018,95.9,336.878,93.684,334.646,98.518Z" transform="translate(338.218 100.703)"/><path class="g" d="M369.328,155.615c-1.579-8.176-8.745-34.42-9.728-41.535l-9.782,17.863c-2.936,5.335-13.831,27.343-15.311,28.5L326,156.186c1.1-1.279,9.1-25.264,9.782-26.795,3.4-7.656,6.383-17.615,9.782-27.646,3.294-9.694.687-19.707,13.995-25.148l5.005,1.613,7.938,2.552,10.374-8.656s12.535-2.736,20.977,5.294,12.882,18.234,20.391,30.034c5.638,8.853,10.929,32.675,14.437,36.975l-8.642,4.934c-1.426-2.174-4.352-16.38-28.973-52.4,0,0,16.1,47.084,16.611,51.344,0,0-9-1.286-23.416,2.184S369.328,155.615,369.328,155.615Z" transform="translate(345.129 43.678)"/><path class="t" d="M394.144,112.4s1.082,75.206,4.365,81.511,19.493,10.766,20.31,9.425-7.013-6.764-8.955-10.282-4.352-4.593-3.474-13.8,2.579-59.007,2.579-59.007l-14.747-9.071Z" transform="translate(508.847 138.602)"/><path class="t" d="M398.9,117.587s12.953,67.8,10.708,71.841-11.677,13.586-15.852,13.164,3.661-8.779,5.26-12.463,3.9-4.985,2.154-14.073-19-58.183-19-58.183l11.341-7.373Z" transform="translate(480.072 137)"/><path class="x" d="M395.538,69.942a13.8,13.8,0,0,0-3.865,9.7,12.564,12.564,0,0,0,1.038,5.529c.7,1.6,2.293,3.232,2.657,4.832-2.3.16-4.24.194-6.145,2.065-6.046,5.948-6.332,19.973,2.195,23.671a6.272,6.272,0,0,0,4.672.32c-2.879-1.956-6.54,4.253-4.138,7.492,2.821,3.8,9.775,3.944,13.78,4.158,4.593.242,11.528,1.14,15.271-2.344,2.862-2.664,4.372-8.268,4.995-12.147,1.153,3.062,2.351,6.911,5.308,8.044,2.872,1.1,6.322-.813,7.931-3.583s.956-6.536-.643-8.979c-.779-1.184-5.379-7.513-6.662-6.945,5.747-2.545,5.76-9.69,4.58-16.332-3.525-19.861-27.857-29.752-40.739-15.737C395.691,69.769,395.613,69.857,395.538,69.942Z" transform="translate(486.473 23.157)"/><path class="q" d="M412.013,67.387c1.409,1.409.276,10.728.718,13.049,1.188,6.155,7.4,7.118,9.343,12.025.806,2.031-.286,5.213-.854,7.026-1.276,4.056-3.875,9.912-8.4,11.041-2.416.6-6.016.575-8.673.932-3.437.459-6.873.415-10.041-1.16-6.271-3.117-7.8-9.779-5.5-16.077,1.626-4.464,4.28-4.165,7.435-6.883,3.314-2.858,4.883-7.819,4.644-12.059C400.346,69.1,408.584,63.954,412.013,67.387Z" transform="translate(493.111 30.776)"/><path class="q" d="M403.878,73.961l-.225-5.4c-3.433-3.433-12.565-1.844-12.222,4.335,0,.041,0,1.079,0,1.123,1.147,1.919,3.954,6.441,5.8,6.179C401.163,79.64,402.606,77.537,403.878,73.961Z" transform="translate(502.308 31.977)"/><path class="q" d="M390.114,71.156s2.538,19.071,9.84,19.588S409.628,80.407,410.2,72.9c.643-8.394-.133-10.943-10.354-11.426C389.988,61.013,390.114,71.156,390.114,71.156Z" transform="translate(499.165 19.188)"/><path class="x" d="M414.21,70.186c-.085.589-.238,1.235-.378,1.9,2.6-.054,2.532,4.131,1.688,5.611-.143.248-1.1,1.034-1.1,1.208,0,.531,1.031.473.895,1.324a2.411,2.411,0,0,1-3.015,1.7c-.922-.347-.725-1.415-.861-2.249a6.982,6.982,0,0,0-2.514-4.474c-1.079-1.058-3.021-2.535-3.164-4.09-2,3.562-6.363,4.158-10.037,3.334-.517,2.147-.126,3.317-2.252,4.576-2.052,1.215-2.412.15-4.1-.987-.395-1.732.919-3.624,1.909-4.379-2.511-2.423-.395-6.227,1.991-8.775A12.526,12.526,0,0,1,403.849,60.8a10.4,10.4,0,0,1,5.893,2.409c1.079,1.055,2.229,1.7,2.355,4.073C414.19,67.535,414.424,68.682,414.21,70.186Z" transform="translate(497.216 17.497)"/><path class="i" d="M391.574,72.226l-1.592,1.586s2.787,3.528,10.742,3.705,12.127-4.059,12.127-4.059l-2.188-1.409S399.325,78.752,391.574,72.226Z" transform="translate(498.848 44.62)"/><path class="q" d="M399.09,102.317a10.35,10.35,0,0,1,1.306-3.886c1.643-3.416,3.712-6.652,5.226-10.112,1.916-4.393,3.335-8.959,5.352-13.3.827-1.78,1.9-3.522,2.634-5.366,1.351-3.382.517-6.781.7-10.347.027-.561,1.32,1.211,1.361,1.3a7.762,7.762,0,0,1,.357,3.511c1.766-1,1.718-3.365,2.565-4.964a65.522,65.522,0,0,1,3.355-5.675c.245,2.46-1.449,5.529-2.12,7.788.259-.868,1.834-2.477,2.365-3.379a10.052,10.052,0,0,1,2.552-3.331c-.048,2.484-1.742,5.757-2.532,8.115a36.124,36.124,0,0,1,4.706-5.039c.374,2.736-2.535,4.352-2.994,6.781a12.3,12.3,0,0,0,3.855-2.025c-1.756,4.644-6.553,6.89-8.84,11.33-3.522,6.842-5.032,14.828-7.322,22.195-.9,2.882-1.882,5.8-3,8.608-.456,1.14-1.392,4.668-2.868,4.781-.711.054-1.5-1.153-2.072-1.582-.922-.7-2.184-1.031-2.987-1.892A4.747,4.747,0,0,1,399.09,102.317Z" transform="translate(520.723 0)"/><path class="q" d="M407.872,100.228a10.921,10.921,0,0,1-.925-1.337c-2.232-4-4.927-7.751-7.05-11.807-2.222-4.25-3.961-8.7-6.278-12.892-.949-1.718-2.147-3.379-3.008-5.165-1.582-3.28-.99-6.727-1.422-10.272-.065-.558-1.228,1.3-1.266,1.392a7.755,7.755,0,0,0-.109,3.525c-1.831-.871-1.953-3.232-2.909-4.767a63.562,63.562,0,0,0-3.743-5.427c-.072,2.474,1.834,5.413,2.661,7.622-.316-.851-2-2.344-2.6-3.205a10.085,10.085,0,0,0-2.78-3.144c.221,2.474,2.14,5.621,3.1,7.918a36.149,36.149,0,0,0-5.046-4.7c-.184,2.753,2.831,4.161,3.464,6.557a12.313,12.313,0,0,1-3.988-1.752c2.076,4.512,7.019,6.414,9.616,10.681,3.995,6.577,6.06,14.437,8.864,21.627a36.942,36.942,0,0,0,4.964,9.3,15.32,15.32,0,0,1,2.5,3.532c2.491-1.623,4.233-4.869,7.142-5.869A9.36,9.36,0,0,0,407.872,100.228Z" transform="translate(465.19 0)"/><path class="j" d="M433.663,117.924c.793-2.783,2.269-5.43,3.015-8.152a31.427,31.427,0,0,0,1-5.863c.524-6,2.868-11.273,5.706-16.513,1.466-2.705,6.172-12.089,6.172-12.089s-2.746-1.888-3.47-2.382c-1.824-1.232-3.175-2.95-4.855-4.291-2.477,8.612-6.053,17.863-15.148,21.569-10.112,4.117-16.074-.8-22.542-8.285-2.429-2.807-4.794-5.679-7.332-8.394-2.2-2.361-3.835-5.114-6.046-7.441-.878.847-8.169,4.42-7.836,5.461,1.65,4.587,5.437,9.908,8.006,14.3,2.358,4.039,6.652,8.517,7.36,13.049.4,2.542-.242,5.345.262,7.768.476,2.3,1.817,4.614,2.834,6.88.994,2.218,2.651,5.015,3.062,7.353a12.08,12.08,0,0,1-.02,6c-.408,1.677-.667,3.927-1.038,5.614-.48,2.164-2.868,4.386-.157,4.764,5.468.769,11.069,1.15,16.577,1.531,4.069.282,8.234,1.283,12.321.643,1.742-.276,4.522,1.3,4.416-.507a64.2,64.2,0,0,0-1.562-6.693C433.153,128.1,432.449,122.2,433.663,117.924Z" transform="translate(480.427 30.286)"/><g transform="translate(257.207 564.72)"><path class="o" d="M249.262,239.495s-7.305,55.863-12.841,68.52-9.908,13.583-19.163,24.866-10.364,32.987-10.364,32.987l.208.116-1.024,6.591-1.728,8.394,17.1.425s1.943-.936-5.342-3.889a31.282,31.282,0,0,0-5.366-1.9s3.535-8.095,4.124-9.439c4.74-10.8,22.062-32.991,32.943-45.05,10.442-11.565,28.163-49.793,28.163-49.793C288.562,242.527,249.262,239.495,249.262,239.495Z" transform="translate(-204.349 -117.805)"/><path class="o" d="M285.361,386.082c-7.288-2.95-5.88-2.647-5.88-2.647l.3-6.795,4.495-62.144L252.39,252.247C249.8,237.3,219.175,225,218.263,250.739s19.183,33.209,23.563,38.112,26.084,27.268,26.084,27.268,2.552,1.7-.367,10.2c-2.184,11.912,5.356,51.807,5.356,51.807.473.136.371,6.359.371,6.359l-1.252,5.628,18.653.956S292.646,389.046,285.361,386.082Z" transform="translate(-170.992 -126.644)"/><path class="o" d="M231.314,232.17c-.783-.122-10.473,5.7-10.473,5.7s13.045-8.955,13.94-19.612,5.2-6.431,9.646-2.559c2.657,2.29.943,9.449,1.47,13,.4,2.719,2.188,6.315,1.4,9.071-1.613,5.6-5-1.463-7.625-3.317C236.789,232.432,234.206,232.609,231.314,232.17Z" transform="translate(-164.726 -185.037)"/><path class="ac" d="M257.032,218.463c-5.88-5.485-16.478-1.419-21.011,3.409-6.785,7.22-7.064,21.654-8.238,31.334-1.017,8.363,1.885,17.278-2.47,24.832-2.3,4-5.7,16.376-8.414,20.16-3.624,5.063,9.888,5.846,15.413,7.264,9.84,2.528,29.605,1.116,29.605,1.116s-3.3-15.189-3.729-19.7c-.711-7.465,3.113-14.491,7.673-24.321,2.467-5.294,5.7-7.258,4.182-12.947-1.48-5.539-4.039-10.677-6.475-15.852-1.81-3.811-3.311-11.81-6-14.753C257.4,218.827,257.208,218.634,257.032,218.463Z" transform="translate(-175.66 -174.648)"/><path class="o" d="M229.134,236.246c-4.406-6.029-7.349-17.207-4.553-24.3,2.845-7.264,8.095-8.258,14.634-3.995,6.414,4.2,16.37,23.552,5.243,26.649-2.831.783-5.992-.153-8.625,1.361Z" transform="translate(-158.368 -199.668)"/><path class="w" d="M230.473,206.08c8.047-3.474,19.823-3.988,21.262,4.713,1.2,7.288-8.642,10.112-13.886,9.183l.068,3.12s-4.495-.834-3.477,3.008c.609,2.28,2.855,2.76,4.842,2.018-2.055.762-2.851,3.961-5.934,4.474-3.94.663-6.067-1.259-8.023-4.382-3.273-5.257-5.284-12-1.579-17.332C224.985,209.084,227.469,207.383,230.473,206.08Z" transform="translate(-162.532 -203.731)"/><path class="o" d="M230.331,208.867l5.192,6.443-4.883,2.412Z" transform="translate(-141.926 -191.39)"/><path class="ad" d="M204.349,283.5l17.1.425s1.922-.932-5.253-3.858a12.846,12.846,0,0,1-11.239.493Z" transform="translate(-204.349 -20.335)"/><path class="ad" d="M247.385,280.159l-.643-.255a13.1,13.1,0,0,1-12.055,1.392l-.646,2.9,18.653.956S254.67,283.123,247.385,280.159Z" transform="translate(-133.015 -20.721)"/><path class="w" d="M253.717,204.092s-19.207-1.3-18.608,17.707c0,0-14.352.49-18.969,20.2s2.807,26.795,11.409,22.236,8-8.5,8-8.5,7.2,3.583,16.5-2.44-3.43-19.326-3.43-19.326l7.571-6.672s-16.387,1.113-7.55-8.547S253.717,204.092,253.717,204.092Z" transform="translate(-179.429 -202.907)"/></g><path class="o" d="M257.186,223.984c-2.749,3.447-3.889,3.389-5.087,5.172-1.763,2.62-4.24,5.777-5.59,8.622-1.463-1.807-1.065-3.243-2.593-5.039-2.065-2.423-2.052-2.681-.453-5.424.793-1.344,1.623-2.746,2.344-4.148.242-.449-1.089-3.552.265-6.8s.8,4.559,1.337,3.369c1.677-3.712,5.026-11.086,5.437-11.5.541-.544-2.154,8.411-.766,9.391,1.269-1.283,4.025-10.745,4.563-9.66s-1.541,9.69-2.062,11.695c.483-1.034,4.236-9.8,4.77-8.449s-2.532,9.571-3.181,10.772c.293-.391,4.811-6.713,4.811-6.165A19.479,19.479,0,0,1,257.186,223.984Z" transform="translate(144.064 370.955)"/><path class="j" d="M226.746,234.369c-5.179,4.58-6.948,11,3.134,14.808,10.082,3.787,31.637,4.42,35.8,3.927,14.066-1.466,33.726-34.964,33.726-34.964l-6.88-5.373s-12.817,23.406-26.877,25.866S232.707,229.1,226.746,234.369Z" transform="translate(96.654 382.697)"/><path class="d" d="M350.281,279.448c0,2.691-20.146,4.879-45.005,4.879s-45-2.188-45-4.879,20.15-4.883,45-4.883S350.281,276.753,350.281,279.448Z" transform="translate(187.22 531.171)"/><path class="i" d="M392.084,68.333s5.672,2.273,8.224,0c0,0-.568,3.688-3.971,3.688S392.084,68.333,392.084,68.333Z" transform="translate(503.898 35.692)"/><path class="r" d="M403.428,86.583s-20.817,43.113-21.834,76.843c-.282,9.357,3.971,17.863,3.971,17.863l55.291,2.834s8.224-32.892,6.805-60.677-10.776-36.295-10.776-36.295S406.548,88.005,403.428,86.583Z" transform="translate(478.662 79.538)"/><path class="r" d="M416.289,147.03c.711-1.153-5.043-5.366-7.873-8.761-5.124,2.773-10.97-1.65-13.219-3.668a12.151,12.151,0,0,0,.783,3C399.266,143.91,415.473,148.371,416.289,147.03Z" transform="translate(511.377 194.903)"/><path class="r" d="M402.28,137.219c.31-.555.323-2.355.129-4.988-2.715,7.438-9.8,10.255-11.405,9.99-1.133-.191-.459-2.018.123-3.229-2.327,4.022-8.51,11.011-4.7,11.392C390.6,150.805,400.038,141.258,402.28,137.219Z" transform="translate(487.397 189.209)"/><path class="ae" d="M342.069,74.734l-3.4,7.372,5.1,1.7,2.834,54.441,10.208,10.208,3.971-10.774-13.61-53.874,3.4-4.536-7.8-5.1Z" transform="translate(375.562 49.708)"/><path class="af" d="M349.078,74.734l-3.4,7.372-9.925-7.938,9.357,5.954Z" transform="translate(368.553 49.708)"/><path class="af" d="M340.333,79.28l6.675,4.56,4.1-11.507-4.463,9.475Z" transform="translate(379.564 45.303)"/><path class="g" d="M338.287,72.349l-2.954,3.634,12.195,2.552Z" transform="translate(367.552 45.341)"/><path class="g" d="M340.619,79.974l4.961-8.932,8.081,2.127-13.328,7.938Z" transform="translate(379.564 42.2)"/><path class="w" d="M268.475,247.878,297.4,314.227s-52.117,14.747-85.063,2.27c0,0,7.19-27.785,7.19-39.129s3.811-28.241,17.2-43.951l30.623,5.672Z" transform="translate(72.04 432.312)"/><g transform="translate(1019.642 396.144)"><circle class="ag" cx="26.217" cy="26.217" r="26.217" transform="translate(0)"/><path class="i" d="M470.448,176.1a20.112,20.112,0,1,1-20.116-20.116A20.115,20.115,0,0,1,470.448,176.1Z" transform="translate(-424.114 -149.878)"/><circle class="ag" cx="14.288" cy="14.288" r="14.288" transform="translate(11.929 11.929)"/><path class="i" d="M450.1,167.672a8.185,8.185,0,1,1-8.186-8.187A8.187,8.187,0,0,1,450.1,167.672Z" transform="translate(-415.693 -141.454)"/><path class="ag" d="M441.575,164.146a3.19,3.19,0,1,1-3.188-3.192A3.191,3.191,0,0,1,441.575,164.146Z" transform="translate(-412.169 -137.927)"/></g><g transform="translate(1044.331 394.184)"><path class="k" d="M442.3,164.339l-6.619,2.741,2.744-6.616Z" transform="translate(-435.684 -137.142)"/><rect class="k" width="33.457" height="0.948" transform="translate(2.404 26.994) rotate(-44.987)"/><path class="l" d="M447.092,154.827l3.475.269-5.084,5.077-3.476-.266Z" transform="translate(-420.49 -150.687)"/><path class="l" d="M447.077,157.083l-.266-3.472-5.077,5.077.266,3.476Z" transform="translate(-421.146 -153.61)"/></g><g transform="translate(488.857 218.481)"><path class="ah" d="M315.209,117.846A21.8,21.8,0,1,1,288.3,102.8,21.8,21.8,0,0,1,315.209,117.846Z" transform="translate(-272.43 -101.972)"/><g transform="translate(5.071 9.897)"><path class="i" d="M288.8,117.22l-1.9.541-.606-2.133a4.3,4.3,0,0,0,1.6-3.9,1.062,1.062,0,0,0,.18-.037,1.025,1.025,0,0,0,.766-1.232l-.4-1.412a1.028,1.028,0,0,0-1.3-.65.891.891,0,0,0-.136.048l-.16-.548a4.674,4.674,0,0,0-8.959,2.532l.156.555a.614.614,0,0,0-.153.031,1.03,1.03,0,0,0-.769,1.232l.4,1.412a1.024,1.024,0,0,0,1.293.65.9.9,0,0,0,.184-.071,4.3,4.3,0,0,0,3.392,2.484l.606,2.137-1.9.538a4.3,4.3,0,0,0-3.2,5.172l1.671,5.917,16.332-4.621-1.671-5.917A4.32,4.32,0,0,0,288.8,117.22Z" transform="translate(-266.296 -104.88)"/><g transform="translate(0 6.795)"><g transform="translate(3.615 2.33)"><rect class="i" width="1.15" height="18.187" transform="matrix(0.962, -0.272, 0.272, 0.962, 0, 0.312)"/></g><path class="i" d="M273.921,113.317l3.15-6.44,6.054,3.838Z" transform="translate(-273.921 -106.877)"/></g></g></g><g transform="translate(946.521 134.005)"><path class="ai" d="M429.71,91.659l-14-9.977-5.958,19.5,31.2,9.528,5.958-19.506Z" transform="translate(-400.18 -66.24)"/><path class="ai" d="M437.324,99.759,406.937,78.118l37.295-.974,30.387,21.643Z" transform="translate(-406.937 -77.144)"/><path class="i" d="M422.5,82.5c-.242.8-1.892.994-3.688.446s-3.045-1.633-2.8-2.426,1.892-1,3.682-.449S422.745,81.711,422.5,82.5Z" transform="translate(-385.217 -70.846)"/><g transform="translate(34.51 9.915)"><g transform="translate(21.289 28.929)"><path class="aj" d="M430.042,100.142l1.406-10.55-1.5-.46-.376-.113-1.5-.458-4.732,9.533Z" transform="translate(-423.337 -88.56)"/></g><path class="aj" d="M429.419,90.846a2.454,2.454,0,1,1-1.6-3.141A2.5,2.5,0,0,1,429.419,90.846Z" transform="translate(-398.983 -61.935)"/><path class="aj" d="M442.514,115.019l6.07-22.215-31.5-11.535.442-1.211,32.042,11.729a.628.628,0,0,1,.378.769l-6.227,22.79Z" transform="translate(-417.08 -80.058)"/></g></g><g transform="translate(769.598 81.405)"><path class="ak" d="M395.4,62.784l7.635,23.4a19.291,19.291,0,0,1-12.351,24.332h0A19.3,19.3,0,0,1,366.349,98.16l-7.639-23.4Z" transform="translate(-345.882 -59.045)"/><rect class="ak" width="5.612" height="23.113" transform="translate(39.697 44.87) rotate(-18.069)"/><path class="ak" d="M365.968,93.7c-1.347-4.124,4-9.568,11.956-12.164s15.492-1.358,16.836,2.763Z" transform="translate(-328.945 -17.265)"/><g transform="translate(45.07)"><path class="ak" d="M387.536,94.547l-16.424,5.362-2.926-33.035,15.9-5.189,5.516,16.9ZM373.9,95.7l10.779-3.518,1.718-13.29-4.321-13.239-10.538,3.437Z" transform="translate(-368.186 -61.685)"/></g><g transform="translate(0 14.719)"><path class="ak" d="M360.459,88.1,354.94,71.2l15.893-5.189,17.128,28.394-16.417,5.362Zm8.976-18.329L358.9,73.211l4.321,13.239,9.235,9.714,10.779-3.518Z" transform="translate(-354.94 -66.011)"/></g><g transform="translate(28.772 19.262)"><path class="m" d="M369.007,71.936l-.085.031-3.9,4.093-1.63-2.572,4.9-5.114,3.144-1.028,7.207,22.072-3.556,1.164Z" transform="translate(-363.396 -67.346)"/></g></g><circle class="al" cx="13.61" cy="13.61" r="13.61" transform="translate(800.425 249.201)"/><path class="al" d="M341.63,101.983A20.982,20.982,0,1,1,320.65,81,20.982,20.982,0,0,1,341.63,101.983Z" transform="translate(281.863 66.125)"/><g transform="translate(994.543 292.413)"><path class="g" d="M478.891,152.618A28.92,28.92,0,1,1,449.972,123.7,28.923,28.923,0,0,1,478.891,152.618Z" transform="translate(-421.051 -123.7)"/><g transform="translate(4.453 11.148)"><rect class="q" width="30.916" height="20.557" transform="matrix(0.707, -0.707, 0.707, 0.707, 8.757, 23.598)"/><path class="o" d="M436.618,141.916a2.045,2.045,0,0,1,0,2.889h0a2.048,2.048,0,0,1-2.885,0l-5.658-5.662a2.041,2.041,0,0,1,0-2.885h0a2.041,2.041,0,0,1,2.885,0Z" transform="translate(-410.064 -106.113)"/><path class="o" d="M437.766,140.777a2.047,2.047,0,0,1,0,2.885h0a2.049,2.049,0,0,1-2.892,0L429.219,138a2.035,2.035,0,0,1,0-2.885h0a2.035,2.035,0,0,1,2.885,0Z" transform="translate(-407.322 -108.856)"/><path class="o" d="M438.9,139.636a2.035,2.035,0,0,1,0,2.885h0a2.037,2.037,0,0,1-2.882,0l-5.662-5.662a2.041,2.041,0,0,1,0-2.885h0a2.041,2.041,0,0,1,2.885,0Z" transform="translate(-404.579 -111.598)"/><path class="o" d="M440.043,138.492a2.047,2.047,0,0,1,0,2.885h0a2.045,2.045,0,0,1-2.889,0l-5.655-5.658a2.041,2.041,0,0,1,0-2.885h0a2.037,2.037,0,0,1,2.882,0Z" transform="translate(-401.835 -114.339)"/><rect class="o" width="20.558" height="22.441" transform="translate(3.419 18.437) rotate(-44.993)"/><path class="v" d="M430.05,149.345l-6.938-6.938a2.569,2.569,0,0,1,0-3.634l10.9-10.9a2.569,2.569,0,0,1,3.634,0l6.941,6.934Z" transform="translate(-422.36 -126.635)"/><path class="q" d="M427.874,138.879a2.039,2.039,0,0,1-2.889,0h0a2.037,2.037,0,0,1,0-2.882l1.831-1.831a2.039,2.039,0,0,1,2.889,0h0a2.041,2.041,0,0,1,0,2.885Z" transform="translate(-417.486 -111.143)"/><path class="q" d="M429,140a2.035,2.035,0,0,1-2.885,0h0a2.041,2.041,0,0,1,0-2.885l1.827-1.827a2.039,2.039,0,0,1,2.889,0h0a2.037,2.037,0,0,1,0,2.882Z" transform="translate(-414.78 -108.44)"/><path class="q" d="M430.123,141.131a2.045,2.045,0,0,1-2.889,0h0a2.047,2.047,0,0,1,0-2.885l1.834-1.834a2.044,2.044,0,0,1,2.882,0h0a2.035,2.035,0,0,1,0,2.885Z" transform="translate(-412.078 -105.736)"/><path class="q" d="M431.247,142.256a2.041,2.041,0,0,1-2.885,0h0a2.041,2.041,0,0,1,0-2.885l1.831-1.831a2.041,2.041,0,0,1,2.885,0h0a2.041,2.041,0,0,1,0,2.885Z" transform="translate(-409.375 -103.033)"/><path class="l" d="M430.1,132.987l5.509-5.509a2.355,2.355,0,0,1,3.26.374l10.905,10.905a2.347,2.347,0,0,1,.371,3.256l-5.509,5.509Z" transform="translate(-403.759 -126.976)"/><path class="q" d="M433.017,130.155l-4.2,4.2-.031.034a3.126,3.126,0,0,0-.946,2.8l.994,5.852A3.135,3.135,0,0,0,435.021,142l-.476-2.793a2.286,2.286,0,0,1,.548-2.358c.133-.133,2.354-2.259,2.354-2.259a3.133,3.133,0,0,0-4.43-4.43Z" transform="translate(-409.287 -121.541)"/><path class="i" d="M428.34,133.095l.116,1.371a1.893,1.893,0,0,0,2.052,1.722l.51-.044a1.89,1.89,0,0,0,1.725-2.048l-.116-1.371Z" transform="translate(-407.992 -113.168)"/><circle class="v" cx="1.804" cy="1.804" r="1.804" transform="translate(3.85 12.552)"/></g></g></g></svg>